<svg width="20" height="20" fill="none" xmlns="http://www.w3.org/2000/svg"><defs><clipPath id="a"><rect rx="0" width="19" height="19" transform="translate(.5 .5)" fill="#fff" fill-opacity="0"/></clipPath></defs><g clip-path="url(#a)" fill="#FFF" fill-rule="evenodd"><path d="M6.44 4.6C5.57 5.41 5 6.62 5 8.27c0 1.07.63 2.47 1.59 3.91.93 1.41 2.08 2.73 2.91 3.62.27.3.72.3.99 0 .83-.89 1.98-2.21 2.91-3.62.96-1.44 1.6-2.84 1.6-3.91 0-1.65-.58-2.86-1.45-3.67S11.43 3.33 10 3.33c-1.44 0-2.68.46-3.56 1.27ZM5.3 3.38C6.54 2.24 8.21 1.66 10 1.66c1.78 0 3.45.58 4.69 1.72 1.24 1.15 1.97 2.83 1.97 4.89 0 1.6-.88 3.35-1.87 4.83-1 1.52-2.22 2.92-3.08 3.84-.94 1-2.49 1-3.43 0-.86-.92-2.08-2.32-3.08-3.84-.99-1.48-1.87-3.23-1.87-4.83 0-2.06.73-3.74 1.97-4.89Z"/><path d="M9.99 5.83c-.92 0-1.66.74-1.66 1.67 0 .92.74 1.66 1.66 1.66.93 0 1.67-.74 1.67-1.66 0-.93-.74-1.67-1.67-1.67ZM6.66 7.5c0-1.85 1.49-3.34 3.33-3.34 1.85 0 3.34 1.49 3.34 3.34 0 1.84-1.49 3.33-3.34 3.33-1.84 0-3.33-1.49-3.33-3.33Z"/></g></svg>