<svg width="20" height="20" fill="none" xmlns="http://www.w3.org/2000/svg"><rect rx="0" width="19" height="19" transform="translate(.5 .5)"/><path d="M11.96 2.08c3.08.34 5.52 2.77 5.86 5.86m-5.86-2.91c1.47.29 2.63 1.44 2.91 2.92" stroke="#FFF" stroke-width="1.5" stroke-linejoin="round" stroke-linecap="round"/><path d="M15.38 11.98c2.04 2.04 3.22 2.45.63 5.04-.32.26-2.38 3.39-9.61-3.84-7.23-7.23-4.1-9.29-3.84-9.62 2.59-2.59 2.99-1.41 5.03.63 2.12 2.12-1.73 2.88 1.6 6.2 3.32 3.32 4.08-.52 6.19 1.59Z" stroke="#FFF" stroke-width="1.5" stroke-linejoin="round"/></svg>